Patient4_TMGait_0pt4_02_right_13_EMG.mot
version=1
nRows=29
nColumns=33
inDegrees=no
endheader
time	1LAddLong	2LGlutMax	3LGlutMed	4LIliopsoas	5LSemiMemb	6LBicFemLong	7LRecFem	8LVastMed	9LVastLat	10LGasMed	11LTibAnt	12lTibPost	13LPeroneusLong	14LSol	15LExtDigLong	16LFlexDigLong	17RAddLong	18RGlutMax	19RGlutMed	20RIliopsoas	21RSemiMemb	22RBicFemLong	23RRecFem	24RVastMed	25RVastLat	26RGasMed	27RTibAnt	28RTibPost	29RPeroneusLong	30RSol	31RExtDigLong	32RFlexDigLong
18.095	-0.007324	-0.040588	0.063629	-0.015717	0.009003	-0.014801	-0.10742	-0.000763	-0.10254	-0.23789	0.14191	0.029907	-0.047607	0.42328	-0.11505	0.011139	0.003815	0.036469	0.96161	-0.33508	0.067749	0.16037	0.010223	-0.086212	0.002747	0.00351	-0.023346	-0.012512	-0.15686	0.004578	-0.002747	0.076447
18.096	0.005493	-0.061798	-0.023956	-0.014648	0.013733	-0.010529	-0.063477	-0.005493	-0.013733	-0.20126	-0.068512	-0.007782	0.1088	0.13962	-0.12573	0.005035	0.001678	-0.083618	-0.71518	-0.25803	0.10681	0.14404	-0.009308	-0.054779	0.014801	-0.006256	0.006714	-0.00885	0.034485	0.001068	-0.001221	0.066986
18.097	-0.002899	-0.053558	-0.025024	-0.000153	0.009918	0.004578	-0.050201	-0.00412	0.10834	-0.14893	-0.1294	-0.006714	0.13977	-0.12848	-0.035553	-0.000305	0.03418	-0.085907	-0.33188	-0.11368	0.016479	0.075989	-0.009766	-0.1033	0.010681	-0.012512	0.005188	-0.010376	0.12161	0.026703	-0.002441	0.070801
18.098	-0.009918	-0.012207	0.053406	0.021515	0.02182	0.016785	0.000916	-0.010986	0.23956	-0.12344	-0.049591	0.005646	0.066528	-0.075073	0.041351	0.007782	0.043335	-0.035095	0.4097	0.012054	0.10071	0.014191	-0.015106	-0.072632	0.023346	-0.012817	0.005188	-0.006256	0.058441	0.016937	-0.010071	0.06134
18.099	-0.006714	-0.036774	-0.025482	0.009766	0.012512	0.016937	-0.01358	-0.004578	0.24811	-0.23789	-0.024109	0.020905	0.029144	0.023651	0.037842	0.007782	0.032349	-0.059662	0.13138	0.19226	-0.030365	0.021515	0.021362	-0.044708	0.023956	-0.011139	-0.003815	-0.009918	0.070343	0.036469	0.000763	0.052643
18.1	-0.002899	-0.044403	0.010071	-0.017395	0.019836	-0.005188	-0.086975	0.000458	0.23209	-0.34912	-0.016022	0.011597	0.002441	0.063629	-0.028229	0.018311	0.008392	-0.063171	0.074005	0.33203	-0.19409	0.14648	-0.011139	-0.006714	0.009308	-0.011902	0.007172	-0.011139	0.038147	0.022278	-0.008545	0.048218
18.101	-0.001373	-0.029144	0.14114	-0.003662	0.020447	-0.023956	-0.04776	-0.015259	0.24735	-0.25223	0.096588	0.004578	-0.043793	0.084381	0.004272	0	-0.010071	-0.085449	-0.58365	0.38773	-0.13519	0.19791	0.004272	-0.048523	0.013428	-0.014801	0.013885	-0.00885	0.052795	-0.002136	-0.007019	0.048218
18.102	-0.006714	-0.058136	0.13748	-0.010376	0.017548	-0.012054	0.059662	-0.004883	0.11612	-0.17792	0.11429	-0.003815	0.003204	0.11398	0.42618	0.016022	-0.016785	-0.11429	-1.2967	0.28046	-0.058594	0.14511	-0.002289	-0.028992	0.019836	-0.01358	0.013123	-0.011597	0.05188	0.016785	-0.007782	0.043945
18.103	-0.006256	-0.042419	0.092773	-0.000153	0.010681	-0.017242	0.072784	-0.003967	-0.30121	-0.092316	0.018158	-0.004425	0.003357	0.036774	-0.17822	0.008087	-0.015411	-0.063629	-0.58929	0.070953	0.080719	0.14984	0.007782	-0.031586	0.024261	-0.014801	0.024719	-0.009766	-0.086517	0.014648	-0.00473	0.041809
18.104	-0.004883	-0.083771	0.074158	-0.000458	0.017242	-0.002594	0.068665	0.000305	-0.32288	0.039673	-0.088348	-0.007477	-0.024567	-0.10376	-0.097656	-0.024414	-0.006866	-0.061188	0.1265	-0.096588	0.070953	0.21347	-0.014343	-0.090027	0.021362	-0.015106	0.023956	-0.009155	-0.090942	0.023499	-0.00473	0.038452
18.105	-0.008392	-0.075836	0.004425	0.016785	0.010223	-0.010681	0.039063	0	-0.20447	0.061798	-0.09552	-0.001373	0.001831	-0.15518	-0.14908	0.016785	0.00061	0.009613	0.44601	-0.1152	-0.048065	0.2243	-0.027161	-0.058136	0.030823	-0.006714	0.014954	-0.008392	-0.039368	0.009155	-0.001678	0.034485
18.106	-0.002136	-0.076141	-0.029755	0.014343	0.015259	-0.020905	0.047302	0.001526	-0.093079	0.070343	-0.11871	-0.003357	0.013428	-0.020752	-0.15091	0.018463	-0.002747	0.028229	-0.1268	-0.055847	-0.2359	0.27008	-0.088806	-0.081024	0.031891	-0.013733	0.005341	-0.009003	-0.001068	0.013123	-0.002441	0.033875
18.107	-0.005951	-0.061646	-0.009766	0.026398	0.016022	-0.017242	0.028839	-0.000916	-0.031128	0.070343	-0.098724	0.000305	0.036926	0.28183	-0.041656	0.019073	-0.007172	-0.014343	-0.32776	0.012817	-0.1857	0.23895	-0.067291	-0.046539	0.028992	-0.005493	-0.007782	-0.011749	0.58411	0.019684	-0.001526	0.030823
18.108	-0.005035	-0.066071	0.044556	0.012665	0.010071	-0.019073	-0.002441	0.006409	0.005341	0.027924	-0.047913	0.001526	0.038757	0.18066	0.031586	-0.001221	0.011749	-0.08316	-0.39032	0.14603	-0.043945	0.23025	-0.062561	-0.07431	0.031281	-0.006714	0.021973	-0.010681	0.3923	0.050964	0.000305	0.032806
18.109	-0.008698	-0.06134	-0.006256	0.007477	0.020599	-0.020752	-0.001984	0.001221	0.062256	-0.097656	0.003662	0.010834	-0.0354	0.005188	0.027771	0.005646	0.019989	-0.16907	-0.16968	0.068054	0.13519	0.2063	-0.098419	-0.009613	0.029297	-0.002899	0.013885	-0.007172	0.29511	0.026245	-0.006714	0.027008
18.11	-0.006714	-0.028076	0.026245	-0.007019	0.001526	0.011749	0.016327	0.00412	-0.028381	-0.095215	0.055389	0.004272	-0.040894	0.035858	0.009155	-0.001221	0.049438	-0.097809	0.45807	-0.010986	-0.1149	0.11719	-0.030518	-0.037384	0.029297	-0.002441	0.029755	-0.006866	0.04303	0.023956	-0.001678	0.026855
18.111	-0.010223	-0.027924	-0.057068	0.016785	0.017853	-0.014801	0.010223	-0.005188	0.020142	-0.041199	0.022125	-0.008392	-0.031128	0.024414	-0.033875	0.000763	0.056915	-0.14328	-0.47028	0.016937	-0.50293	0.12695	-0.067444	-0.050507	0.007019	0.001068	0.036774	-0.008698	-0.27176	-0.013885	-0.005341	0.029144
18.112	0.001373	-0.068054	-0.030518	0	0.010376	-0.016022	0.039825	0.00412	0.058899	-0.009918	-0.029297	-0.024261	0.029755	0.2478	-0.046387	0.010529	0.077972	-0.078583	-1.0054	0.057068	-0.6366	0.055695	-0.032654	-0.12314	-0.01709	-0.003357	0.089722	-0.000305	-0.080414	-0.011292	-0.003967	0.028381
18.113	-0.006866	-0.096893	-0.033722	-0.005035	0.005341	-0.01297	0.095825	0.002136	0.033417	-0.001984	-0.054474	-0.01358	0.02182	0.27771	-0.053406	0.018158	0.06073	-0.10757	-0.14328	0.038147	-0.32791	0.041504	-0.040588	-0.17487	-0.027771	-0.001678	0.090332	-0.004272	0.35858	0.061493	-0.007782	0.032196
18.114	-0.005493	-0.083618	-0.014496	-0.015106	0.018768	-0.014496	0.06485	0.002136	0.008392	0.014496	0.082245	0.004425	0.020905	0.013885	-0.15762	-0.016022	-0.024719	-0.14603	0.11993	0.0737	0.36545	0.12817	0.014648	-0.11032	-0.010223	-0.00061	0.10468	-0.003357	-0.17502	0.04303	-0.007172	0.028687
18.115	-0.003204	-0.10513	-0.06073	0.014343	0.006866	-0.007324	0.008087	0.000305	0.023804	-0.016327	0.15167	0.00351	0.066681	-0.18646	0.1947	0.004578	-0.022278	-0.32166	-0.029755	0.10407	0.20813	0.15442	0.005493	-0.074463	-0.008545	-0.002136	0.13046	0.001526	-0.1329	0.036011	-0.011902	0.025482
18.116	-0.006256	-0.15427	-0.12589	0.017395	0.014648	-0.018158	-0.025024	-0.002594	0.027313	-0.039978	0.22003	0.003662	0.089111	-0.25787	0.6752	-0.010529	-0.035248	-0.34271	-0.09201	0.1062	-0.014191	0.094299	-0.045319	0.067291	0.016632	0.001068	-0.025024	-0.003662	0.017242	0.076447	-0.005188	0.020905
18.117	-0.005341	-0.1564	-0.058289	-0.00824	0.005188	-0.011444	-0.016327	0.005646	0.04425	-0.036621	-0.087585	0.005188	0.085754	0.060425	-0.16403	0.015106	-0.052948	-0.28549	-0.71121	0.064697	0.16373	0.15427	-0.075378	0.1326	0.018005	-0.001678	-0.22766	-0.00473	-0.010834	0.085602	0.000153	0.017548
18.118	-0.00412	-0.12726	-0.029144	0.024719	0.000458	-0.00473	0.027771	-0.000763	0.060272	-0.01236	-0.001221	0.008545	0.010223	0.16373	0.15335	0.010223	-0.048676	-0.21011	-0.62683	0.036316	0.23056	0.041504	-0.017395	0.052948	0.019226	-0.00061	-0.12817	-0.002899	0.0383	0.001526	-0.003357	0.009766
18.119	-0.001373	-0.10819	-0.059967	0.025635	0.004578	-0.012512	0.13382	0.00351	0.12543	0.008698	-0.097351	-0.007172	-0.050354	0.17944	0.12802	0.024719	-0.012817	-0.18677	-0.61249	-0.074158	0.082703	-0.011292	-0.003052	0.007172	0.000763	-0.012207	-0.021973	-0.002594	0.33432	-0.002289	-0.00061	0.011749
18.12	-0.006561	-0.091553	-0.061951	-0.003967	0.00351	-0.027466	0.15488	0.010986	0.031891	-0.001373	-0.11978	-0.015717	-0.080414	0.11459	0.24857	0.00946	0.000305	-0.095978	0.009918	-0.14282	-0.011444	-0.049438	0.006714	0.016174	0.003967	-0.004883	-0.042419	-0.003052	0.30579	0.002289	-0.002136	0.014191
18.121	-0.00061	-0.062256	-0.058289	0.001984	0.005798	-0.02121	0.21713	0.012054	-0.02533	-0.029907	0.16007	-0.005951	-0.063629	0.083771	-0.11139	0.014343	0.021057	-0.006409	-0.055084	-0.084229	-0.009766	-0.090637	0.014954	-0.024567	-0.007324	-0.002747	-0.003662	-0.000153	0.21057	0.023193	-0.000305	0.009003
18.122	-0.006104	-0.082703	-0.069427	0.007629	0.013885	-0.02182	0.19196	0.004883	-0.028687	-0.032654	0.21454	0.00351	-0.005798	0.10529	-0.19272	0.007782	0.033264	-0.031281	-0.7692	-0.16785	0.002899	-0.11719	0.013275	-0.06134	0.017395	-0.005035	0.006866	0.001984	-0.12039	0.060883	0.002289	0
18.123	-0.005341	-0.04837	-0.095062	-0.001678	-0.001526	-0.023651	0.14862	0.011292	0.016174	-0.020447	0.057373	-0.009155	0.020752	0.034485	0.059814	-0.01236	0.028534	0.018158	-0.56152	-0.16449	0.017548	-0.12695	0.015564	-0.03067	0.002289	-0.007629	-0.019836	0.00061	-0.17075	0.068665	-0.00351	0.004272
